<svg width="110" height="53" viewBox="0 0 110 53" fill="none" xmlns="http://www.w3.org/2000/svg">
<path d="M27.56 14.68V15.48C27.0267 15.6667 26.44 16.0933 25.8 16.76C25.16 17.4 24.5867 18.4133 24.08 19.8L15.32 43.12C15.16 43.12 14.9867 43.1067 14.8 43.08C14.64 43.08 14.4667 43.08 14.28 43.08C14.0933 43.08 13.9067 43.08 13.72 43.08C13.56 43.1067 13.4 43.12 13.24 43.12L3.2 18.04C2.8 17.0533 2.36 16.3867 1.88 16.04C1.42667 15.6933 1 15.5067 0.6 15.48V14.68C1.29333 14.7067 2.13333 14.7333 3.12 14.76C4.13333 14.7867 5.12 14.8 6.08 14.8C7.25333 14.8 8.34667 14.7867 9.36 14.76C10.4 14.7333 11.2267 14.7067 11.84 14.68V15.48C10.96 15.5067 10.28 15.6133 9.8 15.8C9.34667 15.96 9.09333 16.28 9.04 16.76C8.98667 17.2133 9.13333 17.9067 9.48 18.84L16.84 37.76L16.08 38.68L22.08 22.68C22.7467 20.8933 23.08 19.48 23.08 18.44C23.08 17.4 22.7867 16.6533 22.2 16.2C21.6133 15.7467 20.7733 15.5067 19.68 15.48V14.68C20.56 14.7067 21.3867 14.7333 22.16 14.76C22.96 14.7867 23.7467 14.8 24.52 14.8C25.16 14.8 25.72 14.7867 26.2 14.76C26.7067 14.7333 27.16 14.7067 27.56 14.68ZM35.7919 21.76C38.1385 21.76 39.9785 22.4667 41.3119 23.88C42.6452 25.2933 43.3119 27.5467 43.3119 30.64H29.8319L29.7919 29.88H38.6719C38.7252 28.5733 38.6452 27.3733 38.4319 26.28C38.2185 25.16 37.8719 24.2667 37.3919 23.6C36.9385 22.9333 36.3385 22.6 35.5919 22.6C34.5785 22.6 33.6985 23.2 32.9519 24.4C32.2052 25.5733 31.7385 27.5067 31.5519 30.2L31.7119 30.44C31.6585 30.7867 31.6185 31.16 31.5919 31.56C31.5919 31.96 31.5919 32.36 31.5919 32.76C31.5919 34.6 31.8585 36.12 32.3919 37.32C32.9252 38.52 33.6185 39.4 34.4719 39.96C35.3252 40.52 36.2052 40.8 37.1119 40.8C37.7252 40.8 38.3519 40.7067 38.9919 40.52C39.6319 40.3333 40.2585 39.9867 40.8719 39.48C41.4852 38.9733 42.0452 38.2533 42.5519 37.32L43.3119 37.64C43.0185 38.5733 42.5252 39.5067 41.8319 40.44C41.1652 41.3467 40.2985 42.0933 39.2319 42.68C38.1652 43.2667 36.9119 43.56 35.4719 43.56C33.6585 43.56 32.0585 43.16 30.6719 42.36C29.2852 41.56 28.2052 40.3733 27.4319 38.8C26.6585 37.2 26.2719 35.2533 26.2719 32.96C26.2719 30.5333 26.6719 28.4933 27.4719 26.84C28.2985 25.1867 29.4319 23.9333 30.8719 23.08C32.3119 22.2 33.9519 21.76 35.7919 21.76ZM53.4272 11.68V39.28C53.4272 40.4 53.6272 41.16 54.0272 41.56C54.4539 41.96 55.1605 42.16 56.1472 42.16V43C55.6672 42.9733 54.9339 42.9467 53.9472 42.92C52.9872 42.8667 52.0005 42.84 50.9872 42.84C50.0005 42.84 48.9872 42.8667 47.9472 42.92C46.9339 42.9467 46.1739 42.9733 45.6672 43V42.16C46.6539 42.16 47.3472 41.96 47.7472 41.56C48.1739 41.16 48.3872 40.4 48.3872 39.28V16.48C48.3872 15.28 48.2005 14.4 47.8272 13.84C47.4539 13.2533 46.7339 12.96 45.6672 12.96V12.12C46.5205 12.2 47.3472 12.24 48.1472 12.24C49.1605 12.24 50.1072 12.2 50.9872 12.12C51.8672 12.0133 52.6805 11.8667 53.4272 11.68ZM76.9766 22.32V23.16C76.4699 23.2667 75.9899 23.5467 75.5366 24C75.1099 24.4533 74.6966 25.2533 74.2966 26.4L68.1766 43.12C67.8566 43.0933 67.5366 43.08 67.2166 43.08C66.8966 43.08 66.5632 43.0933 66.2166 43.12L59.0166 25.4C58.6166 24.3867 58.2032 23.76 57.7766 23.52C57.3499 23.28 56.9899 23.16 56.6966 23.16V22.32C57.4432 22.3733 58.2166 22.4267 59.0166 22.48C59.8166 22.5067 60.6966 22.52 61.6566 22.52C62.4832 22.52 63.3499 22.5067 64.2566 22.48C65.1899 22.4267 66.0566 22.3733 66.8566 22.32V23.16C66.2699 23.16 65.7366 23.2 65.2566 23.28C64.8032 23.36 64.4966 23.5733 64.3366 23.92C64.1766 24.24 64.2432 24.8133 64.5366 25.64L69.3366 38.08L68.9766 38.52L72.6166 28.64C73.0699 27.3867 73.2566 26.3733 73.1766 25.6C73.0966 24.8267 72.8032 24.24 72.2966 23.84C71.8166 23.44 71.1232 23.2133 70.2166 23.16V22.32C70.6699 22.3467 71.0966 22.3733 71.4966 22.4C71.9232 22.4267 72.3366 22.4533 72.7366 22.48C73.1632 22.48 73.5632 22.48 73.9366 22.48C74.4966 22.48 75.0432 22.4667 75.5766 22.44C76.1366 22.4133 76.6032 22.3733 76.9766 22.32ZM83.0156 12.12C83.9756 12.12 84.7623 12.3867 85.3756 12.92C85.989 13.4533 86.2956 14.16 86.2956 15.04C86.2956 15.92 85.989 16.6267 85.3756 17.16C84.7623 17.6933 83.9756 17.96 83.0156 17.96C82.0556 17.96 81.269 17.6933 80.6556 17.16C80.0423 16.6267 79.7356 15.92 79.7356 15.04C79.7356 14.16 80.0423 13.4533 80.6556 12.92C81.269 12.3867 82.0556 12.12 83.0156 12.12ZM85.8156 21.88V39.28C85.8156 40.4 86.0156 41.16 86.4156 41.56C86.8423 41.96 87.549 42.16 88.5356 42.16V43C88.0556 42.9733 87.3223 42.9467 86.3356 42.92C85.349 42.8667 84.349 42.84 83.3356 42.84C82.349 42.84 81.349 42.8667 80.3356 42.92C79.3223 42.9467 78.5623 42.9733 78.0556 43V42.16C79.0423 42.16 79.7356 41.96 80.1356 41.56C80.5623 41.16 80.7756 40.4 80.7756 39.28V26.72C80.7756 25.4933 80.5756 24.6 80.1756 24.04C79.8023 23.4533 79.0956 23.16 78.0556 23.16V22.32C78.909 22.4 79.7356 22.44 80.5356 22.44C81.5223 22.44 82.4556 22.4 83.3356 22.32C84.2423 22.2133 85.069 22.0667 85.8156 21.88ZM95.9203 43.28C94.7736 43.28 93.8003 43.0667 93.0003 42.64C92.2003 42.1867 91.6003 41.5867 91.2003 40.84C90.8003 40.0667 90.6003 39.2133 90.6003 38.28C90.6003 37.1333 90.867 36.2 91.4003 35.48C91.9336 34.7333 92.6136 34.1467 93.4403 33.72C94.2936 33.2667 95.187 32.8933 96.1203 32.6C97.0536 32.28 97.9336 31.9867 98.7603 31.72C99.587 31.4267 100.267 31.0933 100.8 30.72C101.334 30.3467 101.6 29.8533 101.6 29.24V26.32C101.6 25.4667 101.467 24.7733 101.2 24.24C100.96 23.68 100.587 23.2667 100.08 23C99.6003 22.7067 98.987 22.56 98.2403 22.56C97.6803 22.56 97.0936 22.64 96.4803 22.8C95.867 22.96 95.3603 23.2667 94.9603 23.72C95.6536 23.9067 96.187 24.2533 96.5603 24.76C96.9603 25.2667 97.1603 25.88 97.1603 26.6C97.1603 27.4267 96.8803 28.08 96.3203 28.56C95.787 29.0133 95.107 29.24 94.2803 29.24C93.4003 29.24 92.7336 28.96 92.2803 28.4C91.827 27.84 91.6003 27.1867 91.6003 26.44C91.6003 25.6933 91.787 25.08 92.1603 24.6C92.5336 24.0933 93.0536 23.64 93.7203 23.24C94.387 22.7867 95.2403 22.4267 96.2803 22.16C97.3203 21.8933 98.4536 21.76 99.6803 21.76C100.854 21.76 101.894 21.8933 102.8 22.16C103.707 22.4 104.48 22.84 105.12 23.48C105.76 24.0933 106.174 24.8533 106.36 25.76C106.547 26.6667 106.64 27.7733 106.64 29.08V40.04C106.64 40.7067 106.72 41.1867 106.88 41.48C107.04 41.7467 107.294 41.88 107.64 41.88C107.907 41.88 108.16 41.8133 108.4 41.68C108.64 41.5467 108.907 41.36 109.2 41.12L109.64 41.8C109.054 42.2533 108.44 42.6133 107.8 42.88C107.16 43.1467 106.387 43.28 105.48 43.28C104.547 43.28 103.8 43.1467 103.24 42.88C102.707 42.6133 102.307 42.2267 102.04 41.72C101.8 41.2133 101.667 40.6133 101.64 39.92C101 40.9867 100.214 41.8133 99.2803 42.4C98.347 42.9867 97.227 43.28 95.9203 43.28ZM98.3203 41.04C98.9603 41.04 99.547 40.8667 100.08 40.52C100.64 40.1733 101.147 39.6533 101.6 38.96V30.88C101.334 31.28 100.947 31.64 100.44 31.96C99.9603 32.28 99.4403 32.6 98.8803 32.92C98.3203 33.24 97.787 33.6133 97.2803 34.04C96.8003 34.44 96.387 34.9467 96.0403 35.56C95.7203 36.1467 95.5603 36.9067 95.5603 37.84C95.5603 38.88 95.8136 39.68 96.3203 40.24C96.827 40.7733 97.4936 41.04 98.3203 41.04Z" fill="#2E2E2E"/>
</svg>
